<svg xmlns="http://www.w3.org/2000/svg" viewBox="0 0 650 145"><g fill="none" fill-rule="evenodd"><circle cx="72.03" cy="72.03" r="72.03" fill="#6085FF" fill-rule="nonzero"/><path fill="#979797" fill-rule="nonzero" d="M196.74 135.2h-4l-1.75-5.53h-7.13l-1.72 5.53h-3.33l6.87-20.81h4.16l6.9 20.81zm-6.6-8.41l-2.68-8.71-2.71 8.71h5.39zm32.16 8.41h-3.18l-9.69-15.93v15.93h-3.15v-20.81h4.28l8.59 14.13v-14.13h3.15m16.45 13.85h-10.29c0 3 1.72 4.76 4 4.76 1.6519-.01858 3.1542-.9609 3.89-2.44l2.38 1.25c-1.3243 2.37246-3.85376 3.8162-6.57 3.75-4.49 0-7.16-3.24-7.16-7.61s2.59-8.17 7-8.17c2.2476-.09648 4.36426 1.05805 5.5 3 .87095 1.5688 1.29305 3.34714 1.22 5.14l.03.32zm-3.45-2.17c0-2.17-1-3.86-3.15-3.86-.99967.00332-1.95347.4199-2.6353 1.15097-.68183.73107-1.03098 1.71155-.9647 2.70903h6.75zm23.98-6l-4.67 15.13h-2.5l-3-10.58-3 10.58h-2.55l-4.61-15.13h3.51l2.76 10.11 2.94-10.11h2.5l2.94 10.2 2.88-10.2m25.24-5.68l-7 12.28v8.53h-3.83v-8.47l-7.13-12.33h4.22l5.14 9.21 5.05-9.21m8.78 21.12c-4.13 0-7-3.15-7-7.91 0-4.19 2.38-7.88 7-7.88 4.31 0 7 3.21 7 7.88s-2.81 7.91-7 7.91zm0-13.26c-2.56 0-3.39 2.26-3.39 5.35s.86 5.38 3.39 5.38c2.53 0 3.39-2.2 3.39-5.38 0-2.96-.78-5.31-3.39-5.31v-.04zm18.13 1.32h-.09c-.59983-.162-1.2187-.24273-1.84-.24-1.37477-.01388-2.67134.63813-3.48 1.75v10.11h-3.45v-15.13h3.34v2.94c1.23666-1.87937 3.28473-3.0682 5.53-3.21l-.01 3.78zm14.96 11.62h-3.78l-3.89-7.34-2.26 2.66v4.67h-3.45v-20.8h3.45v12.84l5.95-7.16h3.57l-4.79 5.32m25.98-7.87h-5.86v17.69h-3.83v-17.69h-5.89v-3.12h15.58m5.21 3.2h-3.47v-3.21h3.51l-.04 3.21zm0 17.6h-3.47v-15.13h3.45l.02 15.13zm24.38 0h-3.48v-10.29c0-1.31-.48-2.38-2.2-2.38-1.34 0-2.62 1.16-3.24 1.72v10.94h-3.45v-10.28c0-1.31-.47-2.38-2.2-2.38-1.34 0-2.65 1.19-3.24 1.75v10.91h-3.45v-15.12h3.41v2.23c1.1614-1.52733 2.952-2.44653 4.87-2.5 1.73046-.09064 3.28733 1.04467 3.73 2.72 1.22-1.25 2.56-2.68 5.17-2.68 1.57193-.0734 3.01746.85815 3.6 2.32.31122.83844.47037 1.72567.47 2.62l.01 10.42zm15.95-6.96h-10.29c0 3 1.72 4.76 4 4.76 1.6519-.01858 3.1542-.9609 3.89-2.44l2.38 1.25c-1.33656 2.36026-3.8687 3.78795-6.58 3.71-4.49 0-7.16-3.24-7.16-7.61s2.59-8.17 7-8.17c2.2476-.09648 4.36426 1.05805 5.5 3 .87095 1.5688 1.29305 3.34714 1.22 5.14l.04.36zm-3.45-2.17c0-2.17-1-3.86-3.15-3.86-.99967.00332-1.95347.4199-2.6353 1.15097-.68183.73107-1.03098 1.71155-.9647 2.70903h6.75zm11.02 9.45c-2.82 0-5-.86-6.33-3.36l2.35-1.61c.77938 1.585 2.42582 2.55557 4.19 2.47 1.54 0 2.91-.62 2.91-1.87 0-.86-.5-1.4-1.78-1.72-1.28-.32-2.59-.39-3.8-.77-2.32-.77-3.33-2.11-3.33-4.25.02232-1.3555.69604-2.61734 1.81-3.39 1.15176-.86375 2.56076-1.31463 4-1.28 2.35832-.20318 4.62447.96293 5.83 3l-2.5 1.54c-.61234-1.30682-1.91698-2.1494-3.36-2.17-1.6 0-2.67.83-2.67 1.87 0 .83.59 1.34 1.78 1.61.92.21 1.78.36 3.09.65 2.41.54 4.16 1.81 4.16 4.34.01 2.94-2.72 4.94-6.35 4.94zm30.63-6.89c-1.22 4.88-4.31 7-8.32 7-5 0-8.68-3.92-8.68-10.7 0-6.27 3.39-10.79 8.95-10.79 4.46 0 7.13 2.88 7.85 7l-3.8.38c-.36-2.32-1.61-4.49-4.22-4.49-3.12 0-4.79 3-4.79 7.79 0 5.44 2.11 7.7 5 7.7 2.62 0 4.43-1.81 5.17-4.67l2.84.78zm8.37 6.89c-4.13 0-7-3.15-7-7.91 0-4.19 2.38-7.88 7-7.88 4.31 0 7 3.21 7 7.88s-2.81 7.91-7 7.91zm0-13.26c-2.56 0-3.39 2.26-3.39 5.35s.86 5.38 3.39 5.38c2.53 0 3.39-2.2 3.39-5.38 0-2.96-.76-5.31-3.39-5.31v-.04zm30.52 12.94h-3.48v-10.29c0-1.31-.48-2.38-2.2-2.38-1.34 0-2.62 1.16-3.24 1.72v10.94h-3.45v-10.28c0-1.31-.47-2.38-2.2-2.38-1.34 0-2.65 1.19-3.24 1.75v10.91h-3.45v-15.12h3.37v2.23c1.1614-1.52733 2.952-2.44653 4.87-2.5 1.72617-.1048 3.29013 1.01292 3.75 2.68 1.22-1.25 2.56-2.68 5.17-2.68 1.57193-.0734 3.01746.85815 3.6 2.32.31122.83844.47037 1.72567.47 2.62l.03 10.46zm10.62.32c-1.5618-.04972-3.03855-.72325-4.1-1.87v6.48h-3.41v-20.06h3.39v1.84c1.09493-1.3367 2.7321-2.11123 4.46-2.11 3.66 0 5.5 3.39 5.5 7.88-.05 5.53-2.84 7.84-5.84 7.84zm-1-13.17c-1.1776.094-2.2736.63843-3.06 1.52v7.79c.86128.75925 1.94546 1.2189 3.09 1.31 2.35 0 3.21-2.23 3.21-5.23-.05-3.87-1.17-5.38-3.29-5.38l.05-.01zm21.34 12.85h-3.45c-.13494-.55523-.22523-1.12037-.27-1.69-1.29236 1.16523-2.93486 1.86865-4.67 2-2.44 0-4.85-1.28-4.85-4.19 0-3.12 2.82-5.35 9.42-5.71v-1c0-1.34-.74-2.35-2.91-2.35-1.44526-.03687-2.66867 1.05937-2.79 2.5l-3.06-.65c.59-2.65 2.5-4.25 6.18-4.25 2.53 0 3.86.54 5 1.78.70857.9338 1.02758 2.1059.89 3.27v7.19c-.02756 1.02112.1352 2.03845.48 3l.03.1zm-3.8-7.61c-3.8.45-5.92 1.43-5.92 3.33 0 1 .42 2.11 2.47 2.11 1.27665-.0303 2.50036-.51622 3.45-1.37v-4.07zm19.07 7.61h-3.48V125c0-1.4-.59-2.47-2.35-2.47-1.30816.17-2.51685.7885-3.42 1.75v10.91h-3.45v-15.12h3.39v2.26c1.22286-1.55295 3.074-2.48036 5.05-2.53 1.61915-.0852 3.1229.83773 3.78 2.32.34516.84983.50538 1.76343.47 2.68l.01 10.4zm14.82-15.13l-5.68 15.81c-1.16 3.21-2.71 4.25-5.41 4.25-.66944-.0011-1.3379-.05124-2-.15v-2.76c.48.06 1.43.15 1.84.15 1.72 0 2.62-.59 2.85-2 0-.18-.48-1.63-.59-2l-5-13.29h3.66l3.75 10.91 3.69-10.91 2.89-.01z"/><circle cx="263.84" cy="24.81" r="9.79" fill="#000" fill-rule="nonzero"/><path fill="#000" fill-rule="nonzero" d="M226.5 72.1h.47l10.06-30h15.53l-16.68 49.39h-16.72l-8.52-29.81h-.47l-8.4 29.81h-16.68L168.41 42.1h17l10.06 30h.47l8.4-30h13.73m38.19-.04h16.02v49.39h-16.02zm59.82 15.69c-2.57615-1.43878-5.50222-2.13134-8.45-2-6.67 0-11.12 3.78-11.12 12.35v23.36h-16V42.07h16v9c1.89-5.56 7-10.35 13.68-10.35 2.45632-.10166 4.8788.6005 6.9 2l-1.01 15.03zM463.1 42.07h16.13v49.39H463.1v-7.67c-2.67 5.56-8.23 9-15.68 9-13.35 0-17.57-9.12-17.57-19.69v-31h16v27.14c0 7 2.34 10.9 8.23 10.9 5.89 0 9-5 9-12.9l.02-25.17zm185 15.68c-2.57615-1.43878-5.50222-2.13134-8.45-2-6.67 0-11.12 3.78-11.12 12.35v23.36h-16V42.07h16v9c1.89-5.56 7-10.35 13.68-10.35 2.45632-.10166 4.8788.6005 6.9 2l-1.01 15.03z"/><path d="M344.87 52.41c-6.45 0-9.45 4.12-10.34 9.34h19.91c-.33-4.89-3.45-9.34-9.57-9.34z"/><path fill="#000" fill-rule="nonzero" d="M345.88 80.66c-6.23 0-11.12-3.78-11.57-10.35h35.59v-4.89c0-13.46-8.56-24.69-24.92-24.69-15.12 0-26.42 11.24-26.42 26.79 0 15.55 11.12 25.25 26.81 25.25 12 0 20.42-5.48 23.6-15.27l-13-2c-1.93 3.52-5.19 5.16-10.09 5.16zm-1-28.25c6.12 0 9.23 4.45 9.57 9.34h-19.89c.86-5.23 3.86-9.34 10.31-9.34h.01z"/><path d="M582.67 52.41c-6.45 0-9.45 4.12-10.34 9.34h19.91c-.33-4.89-3.45-9.34-9.57-9.34z"/><path fill="#000" fill-rule="nonzero" d="M583.68 80.66c-6.23 0-11.12-3.78-11.57-10.35h35.59v-4.89c0-13.46-8.56-24.69-24.92-24.69-15.13 0-26.47 11.24-26.47 26.81 0 15.57 11.12 25.25 26.81 25.25 12 0 20.45-5.5 23.62-15.32l-12.95-2c-1.91 3.53-5.23 5.19-10.11 5.19zm-1-28.25c6.12 0 9.23 4.45 9.57 9.34h-19.92c.89-5.23 3.89-9.34 10.34-9.34h.01zM400.56 80.52c-6.23 0-10.57-4.34-10.57-13.79s4.34-13.79 10.57-13.79c5.82 0 9.34 3.35 10.56 9.64l13.29-1.6c-1.64-11.24-9.79-20.27-24-20.27-15.46 0-26.7 10.46-26.7 26s11.24 26 26.7 26c13 0 20.95-7.52 23.44-17.52l-13.4-2c-1.61 4.79-4.89 7.33-9.89 7.33zm111.18.21c-5 0-5.78-3.73-5.78-8V53.3h11V42.07h-11V29.35h-9.9l-.3 3.22c-.63 4.56-3.83 9.43-9.65 9.43h-2.85v11.26h6.9v24.96c0 11.12 7.23 14.57 15.24 14.57 3.88537.02972 7.76216-.36936 11.56-1.19V80.27c-1.7109.39055-3.46717.54532-5.22.46zm36.97 0c-5 0-5.78-3.73-5.78-8V53.3h11V42.07h-11V29.35h-9.9l-.3 3.22c-.63 4.56-3.83 9.43-9.65 9.43h-2.84v11.26h6.9v24.96c0 11.12 7.23 14.57 15.24 14.57 3.88537.02972 7.76216-.36936 11.56-1.19V80.27c-1.71414.39147-3.47384.54624-5.23.46z"/><path fill="#BFCEFF" fill-rule="nonzero" d="M87.71 80.41V50.52c-.20097.7104-.51136 1.38514-.92 2L73.71 72.37v30.17c.17325-.88254.5126-1.72413 1-2.48l13-19.65zm-36.23-.16V50.62c-.34953 1.17556-.99316 2.24253-1.87 3.1-3.4217 4.06905-7.52646 7.51055-12.13 10.17v38.22c.19786-.7098.50486-1.38452.91-2l13.09-19.86z"/><path fill="#FFF" fill-rule="nonzero" d="M49.75 43.52c-2.781-2.8796-7.3696-2.96018-10.25-.18l-.2.19c-.16.16-.31667.32667-.47.5-4.74 5.53-9.62 8.66-14.49 9.31-2.62067.27716-4.88457 1.95452-5.91283 4.3809-1.02827 2.4264-.65894 5.21968.9646 7.29546 1.62354 2.07577 4.2456 3.1071 6.84823 2.69364 3.95124-.54567 7.76244-1.8387 11.23-3.81 4.60354-2.65945 8.7083-6.10095 12.13-10.17 2.84302-2.79116 2.9055-7.352.14-10.22l.01.01zm71.36-.85c-1.57398-1.0439-3.49823-1.41963-5.3493-1.04454-1.85106.37508-3.47725 1.47027-4.5207 3.04454L87.71 80.38l-13 19.69c-1.5144 2.12515-1.74684 4.90783-.60603 7.2548 1.1408 2.34694 3.4726 3.88318 6.0793 4.00516 2.60666.12198 5.07174-1.1898 6.42673-3.41996l36.53-55.39c2.15438-3.28154 1.2463-7.68768-2.03-9.85zm-36.34.01c-1.57398-1.0439-3.49823-1.41963-5.3493-1.04454-1.85106.37508-3.47725 1.47027-4.5207 3.04454L51.48 80.22l-13.09 19.86c-1.81437 2.741-1.51652 6.36776.72073 8.776 2.23725 2.40825 5.8323 2.97194 8.69927 1.364.2-.11.4-.23.59-.36h.05c.89602-.6179 1.6356-1.43624 2.16-2.39l23.1-35L86.8 52.52c2.16796-3.27884 1.27335-7.69376-2-9.87l-.03.03z"/></g></svg>